<?xml version="1.0" standalone="no"?>
<!DOCTYPE svg PUBLIC "-//W3C//DTD SVG 20010904//EN"
 "http://www.w3.org/TR/2001/REC-SVG-20010904/DTD/svg10.dtd">
<svg version="1.0" xmlns="http://www.w3.org/2000/svg"
 width="260.000000pt" height="260.000000pt" viewBox="0 0 260.000000 260.000000"
 preserveAspectRatio="xMidYMid meet">
<metadata>
Created by potrace 1.11, written by Peter Selinger 2001-2013
</metadata>
<g transform="translate(0.000000,260.000000) scale(0.100000,-0.100000)"
fill="#000000" stroke="none">
<path d="M0 1300 l0 -1300 1300 0 1300 0 0 1300 0 1300 -1300 0 -1300 0 0
-1300z m1512 1176 c99 -29 168 -120 168 -220 -1 -165 -121 -400 -282 -552
l-55 -52 121 -23 c176 -34 245 -32 326 8 37 18 100 64 148 108 89 81 116 91
152 55 38 -38 27 -69 -52 -143 -186 -175 -306 -212 -538 -167 -91 18 -170 24
-385 30 -289 9 -362 20 -481 74 -64 30 -138 96 -167 151 -34 63 -31 182 6 257
32 65 93 130 151 161 64 34 183 31 254 -6 65 -34 131 -93 170 -152 l29 -43 12
105 c33 282 138 420 322 422 31 1 76 -5 101 -13z m-1212 -1036 c0 -20 7 -20
1010 -20 1003 0 1010 0 1010 20 0 17 7 20 45 20 l45 0 0 -105 0 -105 -45 0
c-38 0 -45 3 -45 20 0 20 -7 20 -1010 20 -1003 0 -1010 0 -1010 -20 0 -17 -7
-20 -45 -20 l-45 0 0 105 0 105 45 0 c38 0 45 -3 45 -20z m1625 -389 c84 -30
161 -86 211 -154 59 -80 79 -143 79 -252 0 -109 -20 -172 -79 -252 -49 -67
-126 -124 -211 -155 -83 -30 -262 -32 -350 -3 -174 57 -288 201 -302 380 -16
212 122 396 340 451 77 20 237 12 312 -15z m-1233 -154 l3 -174 158 174 159
173 134 0 134 0 -171 -189 c-94 -104 -171 -193 -170 -197 1 -5 80 -109 176
-231 96 -122 175 -224 175 -227 0 -3 -62 -6 -137 -6 l-138 0 -119 150 -120
151 -43 -43 -43 -44 -1 -107 -2 -107 -123 0 -124 0 0 425 0 425 125 0 125 0 2
-173z"/>
<path d="M1360 2349 c-99 -42 -138 -156 -147 -436 -5 -159 -4 -183 9 -183 21
0 164 151 211 222 119 181 149 334 74 383 -31 20 -114 28 -147 14z"/>
<path d="M685 2044 c-16 -8 -38 -23 -49 -32 -26 -23 -66 -111 -66 -145 0 -116
147 -196 390 -213 l101 -7 -7 29 c-3 16 -20 63 -37 104 -86 212 -223 321 -332
264z"/>
<path d="M1669 867 c-97 -37 -149 -113 -149 -220 0 -89 37 -161 104 -202 43
-26 59 -30 121 -30 62 0 78 4 120 30 140 86 141 313 3 398 -55 34 -143 45
-199 24z"/>
</g>
</svg>
